<?xml version="1.0" encoding="utf-8"?>
<!-- Generator: Adobe Illustrator 22.1.0, SVG Export Plug-In . SVG Version: 6.00 Build 0)  -->
<svg version="1.2" baseProfile="tiny" id="Layer_1" xmlns="http://www.w3.org/2000/svg" xmlns:xlink="http://www.w3.org/1999/xlink"
	 x="0px" y="0px" viewBox="0 0 48 48" xml:space="preserve">
<g id="XMLID_16_">
	<path id="XMLID_17_" fill="#FFFFFF" d="M15,24c0,4.9,4,9,9,9c4.9,0,9-4,9-9c0-4.9-4-9-9-9C19.1,15,15,19,15,24z"/>
	<path id="XMLID_18_" fill="#FFFFFF" d="M44.7,12.2c0.1-0.1,0.1-0.3,0-0.4c-2.1-3.5-5.1-6.5-8.6-8.5C32.4,1.1,28.2,0,24,0
		C16.7,0,9.8,3.3,5.2,9c-0.1,0.1-0.1,0.3,0,0.4L12,21.2c0.1,0.1,0.2,0.2,0.3,0.2c0,0,0,0,0.1,0c0.2,0,0.3-0.1,0.3-0.3
		c1.3-5.2,6-8.8,11.3-8.8c0.3,0,0.7,0,1,0c0,0,0,0,0,0h19.3C44.5,12.4,44.6,12.3,44.7,12.2z"/>
	<path id="XMLID_19_" fill="#FFFFFF" d="M27.5,35.4c-0.1-0.1-0.3-0.2-0.4-0.1c-1,0.3-2.1,0.4-3.1,0.4c-4.5,0-8.7-2.6-10.6-6.7
		c0,0,0,0,0,0L3.8,12.2C3.7,12.1,3.6,12,3.4,12c0,0,0,0,0,0c-0.1,0-0.3,0.1-0.3,0.2C1.1,15.8,0,19.9,0,24c0,5.8,2.1,11.4,5.9,15.7
		c3.8,4.3,8.9,7.2,14.5,8c0,0,0,0,0.1,0c0.1,0,0.3-0.1,0.3-0.2l6.8-11.7C27.7,35.7,27.6,35.5,27.5,35.4z"/>
	<path id="XMLID_20_" fill="#FFFFFF" d="M46,15H32.5c-0.2,0-0.3,0.1-0.4,0.2c-0.1,0.1,0,0.3,0.1,0.4c2.3,2.2,3.5,5.2,3.5,8.3
		c0,2.4-0.7,4.7-2.1,6.7c0,0,0,0,0,0l-9.7,16.7c-0.1,0.1-0.1,0.3,0,0.4c0.1,0.1,0.2,0.2,0.3,0.2c0,0,0,0,0,0
		c6.4-0.1,12.3-2.6,16.8-7.1C45.5,36.4,48,30.4,48,24c0-3-0.6-6-1.7-8.8C46.3,15.1,46.1,15,46,15z"/>
</g>
</svg>
