<?xml version="1.0" encoding="utf-8"?>
<!-- Generator: Adobe Illustrator 22.1.0, SVG Export Plug-In . SVG Version: 6.00 Build 0)  -->
<svg version="1.2" height="80px"
		width="80px" baseProfile="tiny" id="Layer_1" xmlns="http://www.w3.org/2000/svg" xmlns:xlink="http://www.w3.org/1999/xlink"
	 x="0px" y="0px" viewBox="0 0 88 88" xml:space="preserve">
<g>
	<g>
		<path fill="#283593" d="M78.9,23.5c9.4-5.4,5.6-19.7-5.2-19.7l-62.4,0c-4.3,0-7.7,3.5-7.7,7.7l0,61.4c0-4,2.1-7.7,5.6-9.6
			L78.9,23.5z"/>
	</g>
	<path fill="#3374BA" d="M49.1,40.5L20,23.6c-7.3-4.3-16.5,1-16.6,9.4l0,39.9c0,0,0,0,0,0c0-4,2.1-7.7,5.6-9.6L49.1,40.5z"/>
	<path fill="#36C2D6" d="M33.3,49.5L9.1,63.2c-3.5,2-5.6,5.7-5.6,9.6v0c0,8.5,9.3,13.9,16.7,9.6l34-19.6c7.4-4.3,7.4-15,0-19.3
		l-5.2-3L33.3,49.5z"/>
</g>
</svg>
