<?xml version="1.0" encoding="UTF-8"?>
<svg viewBox="0 0 192 72" version="1.1" xmlns="http://www.w3.org/2000/svg" xmlns:xlink="http://www.w3.org/1999/xlink">
    <!-- Generator: Sketch 52.6 (67491) - http://www.bohemiancoding.com/sketch -->
    <title>Fika</title>
    <desc>Created with Sketch.</desc>
    <g id="screenshots" stroke="none" stroke-width="1" fill="none" fill-rule="evenodd">
        <g id="large" transform="translate(-370.000000, -132.000000)" fill="#293990">
            <path d="M421.232,149.24 L384.848,149.24 L384.848,163.544 L416.912,163.544 L416.912,176.984 L384.848,176.984 L384.848,203 L370.064,203 L370.064,135.8 L421.232,135.8 L421.232,149.24 Z M447.152,145.88 L431.792,145.88 L431.792,132.92 L447.152,132.92 L447.152,145.88 Z M446.768,203 L432.176,203 L432.176,151.544 L446.768,151.544 L446.768,203 Z M510.32,203 L493.616,203 L480.176,181.976 L475.088,187.352 L475.088,203 L460.496,203 L460.496,132.92 L475.088,132.92 L475.088,170.264 L492.176,151.544 L509.648,151.544 L490.064,171.8 L510.32,203 Z M561.584,203 L547.472,203 L547.472,197.432 C543.92,201.368 539.024,203.96 531.92,203.96 C522.224,203.96 514.256,198.392 514.256,188.216 L514.256,188.024 C514.256,176.792 522.8,171.608 534.992,171.608 C540.176,171.608 543.92,172.472 547.568,173.72 L547.568,172.856 C547.568,166.808 543.824,163.448 536.528,163.448 C530.96,163.448 527.024,164.504 522.32,166.232 L518.672,155.096 C524.336,152.6 529.904,150.968 538.64,150.968 C554.576,150.968 561.584,159.224 561.584,173.144 L561.584,203 Z M547.76,184.856 L547.76,182.264 C545.264,181.112 542,180.344 538.448,180.344 C532.208,180.344 528.368,182.84 528.368,187.448 L528.368,187.64 C528.368,191.576 531.632,193.88 536.336,193.88 C543.152,193.88 547.76,190.136 547.76,184.856 Z" id="Fika"></path>
        </g>
    </g>
</svg>